# xmcd
#
# Track frame offsets: 
#        150
#        16142
#        31955
#        42834
#        53987
#        75864
#        96061
#        111288
#        127807
#        147641
#        163459
#
# Disc length: 2516 seconds
#
# Revision: 0
# Processed by: cddbd v1.5.2PL0 Copyright (c) Steve Scherf et al.
# Submitted via: ExactAudioCopy v1.0b3
#
DISCID=8909d20b
DTITLE=Various Artist - The Borderline Sessions
DYEAR=2013
DGENRE=
TTITLE0=Saskatoon Mt. Pickers - Ghost Soldiers
TTITLE1=Chris McIntyre - Don't Leave the Light On
TTITLE2=Sweetwater Ramblers - Blackberry Blossom
TTITLE3=Dirty Little Kitchen - Wayside
TTITLE4=Peace Country Renegades - Demmit Dammit
TTITLE5=Sweetwater Ramblers - Green Pastures
TTITLE6=Chris McIntyre - Your Dad
TTITLE7=Saskatoon Mt. Pickers - Jack Curly
TTITLE8=Dirty Little Kitchen - Isaiah
TTITLE9=Peace Country Renegades - Rocking Chair
TTITLE10=Trump This - Andrew's Exercises
EXTD=
EXTT0=
EXTT1=
EXTT2=
EXTT3=
EXTT4=
EXTT5=
EXTT6=
EXTT7=
EXTT8=
EXTT9=
EXTT10=
PLAYORDER=
